<?xml version="1.0" encoding="UTF-8" standalone="no"?>
<!-- Created with Inkscape (http://www.inkscape.org/) -->

<svg
   width="109.04171mm"
   height="114.90468mm"
   viewBox="0 0 109.04171 114.90468"
   version="1.1"
   id="svg1"
   xml:space="preserve"
   inkscape:export-filename="logovector"
   inkscape:export-xdpi="96"
   inkscape:export-ydpi="96"
   xmlns:inkscape="http://www.inkscape.org/namespaces/inkscape"
   xmlns:sodipodi="http://sodipodi.sourceforge.net/DTD/sodipodi-0.dtd"
   xmlns="http://www.w3.org/2000/svg"
   xmlns:svg="http://www.w3.org/2000/svg"><sodipodi:namedview
     id="namedview1"
     pagecolor="#505050"
     bordercolor="#eeeeee"
     borderopacity="1"
     inkscape:showpageshadow="0"
     inkscape:pageopacity="0"
     inkscape:pagecheckerboard="0"
     inkscape:deskcolor="#505050"
     inkscape:document-units="mm" /><defs
     id="defs1"><linearGradient
       id="swatch44"
       inkscape:swatch="solid"><stop
         style="stop-color:#c2bbf5;stop-opacity:1;"
         offset="0"
         id="stop44" /></linearGradient><linearGradient
       id="swatch10"
       inkscape:swatch="solid"><stop
         style="stop-color:#c2bbf5;stop-opacity:1;"
         offset="0"
         id="stop10" /></linearGradient></defs><g
     inkscape:label="Capa 1"
     inkscape:groupmode="layer"
     id="layer1"
     transform="translate(-38.386094,-142.96461)"><path
       style="fill:#03020c;fill-opacity:1;fill-rule:evenodd"
       d="m 87.838461,257.73238 c -3.68262,-0.37528 -6.909406,-1.05268 -10.654475,-2.23669 -10.255683,-3.24233 -18.829556,-9.17628 -26.030603,-18.0157 -6.359411,-7.80629 -10.742563,-17.99988 -12.29906,-28.60307 -0.558993,-3.80797 -0.633018,-12.31367 -0.137916,-15.84693 1.361753,-9.71807 4.55534,-18.25644 9.672364,-25.86002 l 1.649057,-2.4504 8.647714,-0.0698 c 8.428081,-0.068 8.647714,-0.0831 8.647714,-0.59531 0,-0.51288 -0.194935,-0.52555 -8.087809,-0.52555 h -8.087808 l 0.597628,-0.8599 c 0.328696,-0.47294 1.616725,-1.91404 2.862288,-3.20244 13.860232,-14.33695 34.165136,-19.89156 52.800075,-14.44399 19.59411,5.72796 34.786,22.8435 38.86081,43.7815 1.69378,8.70331 1.51499,17.34442 -0.53295,25.75725 -5.48388,22.52757 -22.90831,39.15319 -44.81015,42.75588 -2.989499,0.49175 -10.125509,0.71794 -13.096879,0.41513 z m -7.276038,-24.61801 v -15.61042 h -6.614584 -6.614583 v 15.61042 15.61042 h 6.614583 6.614584 z m 5.820838,7.80521 c 0,-2.50472 -0.002,-2.51354 -0.661463,-2.51354 -0.659137,0 -0.661458,0.009 -0.661458,2.51354 0,2.50472 0.0023,2.51354 0.661458,2.51354 0.659133,0 0.661463,-0.009 0.661463,-2.51354 z m 2.11776,0.99219 0.001,-1.52136 0.87337,1.45521 c 0.66531,1.10852 1.04325,1.47515 1.58641,1.53893 l 0.71303,0.0837 v -2.53112 c 0,-2.50906 -0.006,-2.53111 -0.64763,-2.53111 -0.59342,0 -0.65432,0.11465 -0.7276,1.36973 l -0.08,1.36974 -0.84896,-1.36974 c -0.55735,-0.89922 -1.02805,-1.36973 -1.37029,-1.36973 -0.47423,0 -0.52899,0.21719 -0.60624,2.40448 -0.0467,1.32247 -0.0353,2.45356 0.0253,2.51354 0.0606,0.06 0.32852,0.10906 0.59531,0.10906 0.41401,0 0.48523,-0.22289 0.48617,-1.52135 z m 6.08432,-0.44462 c 0,-1.81188 0.0448,-1.9726 0.57136,-2.05052 0.31425,-0.0465 0.60137,-0.29291 0.63805,-0.54757 0.058,-0.40275 -0.17138,-0.46302 -1.76199,-0.46302 -1.65228,0 -1.82867,0.051 -1.82867,0.52916 0,0.35278 0.17639,0.52917 0.52917,0.52917 0.48213,0 0.52916,0.17639 0.52916,1.98437 0,1.94028 0.0147,1.98438 0.66146,1.98438 0.64621,0 0.66146,-0.0453 0.66146,-1.96597 z m 4.7625,1.4368 c 0,-0.41157 -0.17639,-0.52916 -0.79375,-0.52916 -0.61736,0 -0.79375,-0.1176 -0.79375,-0.52917 0,-0.38806 0.17639,-0.52917 0.66146,-0.52917 0.48507,0 0.66146,-0.14111 0.66146,-0.52916 0,-0.38806 -0.17639,-0.52917 -0.66146,-0.52917 -0.41158,0 -0.66146,-0.14993 -0.66146,-0.39688 0,-0.26458 0.26458,-0.39687 0.79375,-0.39687 0.61736,0 0.79375,-0.11759 0.79375,-0.52917 0,-0.46502 -0.17639,-0.52916 -1.45521,-0.52916 h -1.45521 v 2.51354 2.51354 h 1.45521 c 1.27882,0 1.45521,-0.0641 1.45521,-0.52917 z m 4.642229,-0.12026 c 0.4052,-0.40519 0.64944,-0.95247 0.64944,-1.45521 0,-0.77861 -0.0401,-0.80578 -1.19063,-0.80578 -0.91303,0 -1.19062,0.0983 -1.19062,0.42165 0,0.2319 0.23812,0.48391 0.52916,0.56002 0.69544,0.18186 0.67284,0.52458 -0.0497,0.75391 -0.42425,0.13465 -0.70696,0.0256 -1.05833,-0.40836 -0.60671,-0.74926 -0.60308,-1.11591 0.0186,-1.8837 0.42018,-0.51891 0.59606,-0.57115 1.12448,-0.33402 0.73926,0.33173 1.28785,0.19846 1.28785,-0.31286 0,-0.51177 -0.85633,-0.9133 -1.94778,-0.9133 -1.55703,0 -2.661209,1.8939 -2.01448,3.45525 0.68316,1.64929 2.64428,2.12012 3.84199,0.9224 z m 2.58309,-0.27688 -0.0507,-0.79348 0.73145,0.85989 c 0.64861,0.76252 0.88455,0.8599 2.08341,0.8599 1.11959,0 1.38083,-0.0909 1.51991,-0.52917 0.12498,-0.39377 0.40033,-0.52916 1.07617,-0.52916 0.73182,0 0.90821,0.10277 0.90821,0.52916 0,0.40738 0.17639,0.52917 0.7664,0.52917 h 0.76641 l -0.8987,-2.41725 c -0.49428,-1.32949 -0.89869,-2.46059 -0.89869,-2.51355 0,-0.0529 -0.28901,-0.0963 -0.64223,-0.0963 -0.55816,0 -0.74865,0.27596 -1.45521,2.10813 -0.44714,1.15947 -0.81298,2.23103 -0.81298,2.38125 0,0.49486 -0.42057,0.28541 -0.99966,-0.49786 -0.54337,-0.73495 -0.54991,-0.81125 -0.14002,-1.63291 0.37915,-0.76002 0.38489,-0.94259 0.0486,-1.54413 -0.32222,-0.57627 -0.59577,-0.69461 -1.76182,-0.76217 l -1.38038,-0.08 v 2.54577 c 0,2.4888 0.0133,2.54388 0.59531,2.46096 0.4803,-0.0684 0.58551,-0.23812 0.54459,-0.8783 z m 5.0495,-1.60887 c 0.0883,-0.23018 0.16242,-0.49808 0.16465,-0.59531 0.005,-0.23673 0.51589,0.56208 0.52106,0.81539 0.002,0.10914 -0.18728,0.19843 -0.42113,0.19843 -0.27901,0 -0.36997,-0.14388 -0.26458,-0.41851 z m -4.96571,-0.58631 c -0.0717,-0.11609 -0.0242,-0.38298 0.10566,-0.5931 0.17847,-0.28877 0.31068,-0.30746 0.54158,-0.0766 0.168,0.16801 0.22546,0.43491 0.12769,0.59311 -0.20893,0.33805 -0.59004,0.37571 -0.77493,0.0766 z m 11.16281,2.65847 c -0.0578,-0.30495 -0.38054,-0.49133 -0.94544,-0.54593 l -0.85773,-0.0829 v -1.96761 c 0,-1.76792 -0.0519,-1.96761 -0.51101,-1.96761 -0.46319,0 -0.5189,0.23526 -0.59531,2.51413 l -0.0843,2.51414 1.54076,-6e-4 c 1.32424,-5.1e-4 1.52843,-0.0657 1.45304,-0.46361 z m -28.230709,-8.86354 0.0308,-1.38907 0.40435,1.38907 c 0.51946,1.78448 1.17447,1.88512 1.72189,0.26458 l 0.37984,-1.12448 0.19463,1.12448 c 0.14937,0.863 0.31227,1.12448 0.70054,1.12448 0.57134,0 0.62941,-0.59284 0.33448,-3.41457 -0.16316,-1.56106 -0.20362,-1.63626 -0.83949,-1.56017 -0.52393,0.0627 -0.74858,0.32256 -1.04125,1.20443 -0.20525,0.61846 -0.46685,1.12448 -0.58133,1.12448 -0.11448,0 -0.35816,-0.53579 -0.5415,-1.19063 -0.29598,-1.05711 -0.41851,-1.19062 -1.09272,-1.19062 -0.68513,0 -0.75937,0.0867 -0.75937,0.88723 0,0.48797 -0.0765,1.61907 -0.16998,2.51354 -0.16981,1.62461 -0.16925,1.62631 0.52917,1.62631 0.66311,0 0.70073,-0.0716 0.72994,-1.38906 z m 7.64212,0.85989 c 0,-0.41157 -0.17639,-0.52916 -0.79375,-0.52916 -0.61736,0 -0.79375,-0.1176 -0.79375,-0.52917 0,-0.41157 0.17639,-0.52917 0.79375,-0.52917 0.61736,0 0.79375,-0.11759 0.79375,-0.52916 0,-0.41158 -0.17639,-0.52917 -0.79375,-0.52917 -0.52916,0 -0.79375,-0.13229 -0.79375,-0.39688 0,-0.26458 0.26459,-0.39687 0.79375,-0.39687 0.61736,0 0.79375,-0.11759 0.79375,-0.52917 0,-0.46502 -0.17639,-0.52916 -1.45521,-0.52916 h -1.4552 v 2.51354 2.51354 h 1.4552 c 1.27882,0 1.45521,-0.0641 1.45521,-0.52917 z m 3.989109,-0.24423 c 1.02715,-1.02715 1.06897,-2.48511 0.10123,-3.52878 -0.55853,-0.60235 -0.89401,-0.7249 -1.984379,-0.7249 h -1.31221 v 2.51354 2.51354 h 1.21098 c 0.985669,0 1.354869,-0.14389 1.984379,-0.7734 z m -1.872439,-1.74014 c 0,-1.51211 0.20247,-1.74411 0.907139,-1.03944 0.73939,0.73939 0.27398,2.49465 -0.661459,2.49465 -0.13512,0 -0.24568,-0.65485 -0.24568,-1.45521 z m 4.762499,0 c 0,-2.50472 -0.002,-2.51354 -0.66146,-2.51354 -0.65914,0 -0.66146,0.009 -0.66146,2.51354 0,2.50472 0.002,2.51354 0.66146,2.51354 0.65914,0 0.66146,-0.009 0.66146,-2.51354 z m 4.57933,2.36416 c 0.23203,-0.089 0.33518,-0.35623 0.25536,-0.66146 -0.10184,-0.38946 -0.36726,-0.51208 -1.10847,-0.51208 -1.10082,0 -1.60955,-0.37632 -1.60955,-1.19062 0,-0.8148 0.50887,-1.19063 1.61211,-1.19063 0.58606,0 1.0331,-0.14593 1.11703,-0.36463 0.43123,-1.12377 -1.98493,-1.32771 -3.23801,-0.27331 -0.6778,0.57033 -0.81405,0.87639 -0.81405,1.82857 0,0.95217 0.13625,1.25823 0.81405,1.82856 0.78862,0.66358 2.04696,0.89039 2.97153,0.5356 z m 4.70401,-0.18976 c 1.22674,-0.94187 1.39533,-2.93295 0.33787,-3.99041 -0.81125,-0.81124 -2.27394,-0.94293 -3.20785,-0.2888 -1.18501,0.83002 -1.20645,3.19263 -0.0377,4.15533 0.64543,0.53163 2.28559,0.60151 2.90768,0.12388 z m -1.95663,-1.0242 c -0.5955,-0.33325 -0.60479,-1.96195 -0.0131,-2.29308 0.98072,-0.54884 1.89501,0.39216 1.6395,1.6874 -0.11488,0.58234 -1.0475,0.92966 -1.62641,0.60568 z m -15.246819,-4.4668 c 0.56839,-0.3042 0.69881,-1.05379 0.18105,-1.04061 -0.46334,0.0118 -1.25677,0.65128 -1.25677,1.01294 0,0.37511 0.40696,0.38558 1.07572,0.0277 z m -7.27763,-2.75581 c 0.57766,-0.88161 0.40726,-1.47263 -0.62517,-2.16838 -1.04639,-0.70517 -1.08309,-1.01963 -0.119,-1.01963 0.98103,0 1.15065,-0.84318 0.21678,-1.07756 -1.46636,-0.36804 -2.769661,0.57063 -2.401755,1.7298 0.08727,0.27498 0.587625,0.75304 1.111885,1.06236 0.70349,0.41507 0.87558,0.64003 0.6569,0.85871 -0.21837,0.21837 -0.46686,0.21858 -0.94484,8e-4 -0.52048,-0.23715 -0.715845,-0.2144 -0.989378,0.11518 -0.478733,0.57684 0.350548,1.14717 1.668038,1.14717 0.77112,0 1.09945,-0.14925 1.42654,-0.64845 z m 4.08524,0.11928 c 0,-0.41157 -0.17639,-0.52916 -0.79375,-0.52916 -0.61736,0 -0.79375,-0.1176 -0.79375,-0.52917 0,-0.38806 0.17639,-0.52917 0.66146,-0.52917 0.48507,0 0.66146,-0.14111 0.66146,-0.52916 0,-0.38806 -0.17639,-0.52917 -0.66146,-0.52917 -0.91644,0 -0.86065,-0.73561 0.0639,-0.84232 0.43748,-0.0505 0.76019,-0.26748 0.81315,-0.54674 0.0751,-0.39609 -0.12535,-0.46302 -1.3868,-0.46302 h -1.47461 v 2.51354 2.51354 h 1.45521 c 1.27882,0 1.45521,-0.0641 1.45521,-0.52917 z m 2.12503,-0.19844 0.008,-0.7276 0.6404,0.7276 c 0.38359,0.43582 0.91076,0.72761 1.31456,0.72761 0.8381,0 0.83948,-0.12401 0.0123,-1.10709 -0.60786,-0.72241 -0.62946,-0.83291 -0.26458,-1.35384 0.96913,-1.38363 0.15793,-2.56615 -1.76037,-2.56615 h -1.28191 v 2.51354 c 0,2.50472 0.002,2.51354 0.66146,2.51354 0.54317,0 0.66295,-0.13011 0.66982,-0.72761 z m -0.008,-2.71197 c 0,-0.29399 0.17638,-0.52917 0.39687,-0.52917 0.22049,0 0.39688,0.23518 0.39688,0.52917 0,0.29398 -0.17639,0.52916 -0.39688,0.52916 -0.22049,0 -0.39687,-0.23518 -0.39687,-0.52916 z m 6.719099,1.0565 c 0.5246,-1.31069 0.95381,-2.44178 0.95381,-2.51354 0,-0.0718 -0.28781,-0.13046 -0.63957,-0.13046 -0.5217,0 -0.72481,0.23162 -1.10207,1.25677 -0.25437,0.69122 -0.53743,1.34543 -0.62902,1.45381 -0.0916,0.10837 -0.38891,-0.45718 -0.660699,-1.25678 -0.44089,-1.29706 -0.57385,-1.4538 -1.23316,-1.4538 h -0.73898 l 0.79167,1.8604 c 0.43542,1.02322 0.90342,2.15432 1.04,2.51354 0.14501,0.38142 0.459629,0.65314 0.756269,0.65314 0.39268,0 0.72439,-0.54079 1.46175,-2.38308 z m 2.8059,-0.13046 c 0,-2.50473 -0.002,-2.51354 -0.66146,-2.51354 -0.65914,0 -0.66146,0.009 -0.66146,2.51354 0,2.50472 0.002,2.51354 0.66146,2.51354 0.65914,0 0.66146,-0.009 0.66146,-2.51354 z m 4.57933,2.36416 c 0.23203,-0.089 0.33518,-0.35623 0.25536,-0.66146 -0.10185,-0.38946 -0.36727,-0.51208 -1.10847,-0.51208 -1.10082,0 -1.60956,-0.37632 -1.60956,-1.19062 0,-0.81431 0.50874,-1.19063 1.60956,-1.19063 0.7412,0 1.00662,-0.12261 1.10847,-0.51208 0.27582,-1.05473 -2.01673,-1.14414 -3.22689,-0.12586 -0.6778,0.57033 -0.81405,0.87639 -0.81405,1.82857 0,0.95217 0.13625,1.25823 0.81405,1.82856 0.78862,0.66358 2.04695,0.89039 2.97153,0.5356 z m 2.29983,-2.36416 c 0,-2.50473 -0.002,-2.51354 -0.66146,-2.51354 -0.65913,0 -0.66145,0.009 -0.66145,2.51354 0,2.50472 0.002,2.51354 0.66145,2.51354 0.65914,0 0.66146,-0.009 0.66146,-2.51354 z m 4.62615,2.09499 c 0.95616,-0.6265 1.3135,-1.95993 0.83324,-3.10934 -0.70935,-1.69771 -2.57284,-2.0452 -3.89224,-0.7258 -2.15916,2.15916 0.50988,5.50539 3.059,3.83514 z m -2.39558,-1.5449 c -0.29645,-1.18114 -0.0526,-1.60843 0.91775,-1.60843 1.01335,0 1.43164,0.6531 1.05913,1.65365 -0.32597,0.87552 -1.75399,0.84285 -1.97688,-0.0452 z M 82.530238,214.21645 c 0.864016,-0.23967 2.084407,-0.6629 2.711979,-0.94051 l 1.141044,-0.50473 v -10.31237 -10.31236 l -1.256775,-0.4022 c -1.934287,-0.61903 -3.047876,-0.90314 -7.416087,-1.89207 -4.371552,-0.98968 -6.547654,-1.78221 -6.948119,-2.53049 -0.687988,-1.28552 0.130463,-2.65849 1.884674,-3.16159 1.314681,-0.37704 4.35587,-0.31551 5.371093,0.10868 1.016451,0.4247 1.948404,1.61414 2.182735,2.78579 l 0.163203,0.81602 h 3.009636 3.00964 v -4.99095 -4.99095 l -1.521359,-0.67011 c -3.11476,-1.37194 -4.82436,-1.64753 -10.120313,-1.63144 -4.560543,0.0139 -5.057399,0.0645 -7.276042,0.7415 -5.859155,1.78788 -8.643643,4.55334 -9.423544,9.35913 -0.81175,5.00205 1.30423,9.18946 5.8264,11.53014 2.056723,1.06457 3.957736,1.64686 9.682561,2.96582 4.607101,1.06144 6.083965,1.65592 6.526454,2.62708 0.3886,0.85289 0.08626,1.89546 -0.698846,2.40988 -1.047853,0.68658 -4.321735,1.00713 -6.51234,0.63764 -2.446007,-0.41257 -3.33706,-1.15954 -3.791519,-3.17844 l -0.325915,-1.44784 -5.608841,-0.0714 c -5.077687,-0.0647 -5.625209,-0.0288 -5.781689,0.37901 -0.285963,0.74521 0.394392,4.5505 1.082205,6.05289 1.646579,3.5966 5.128058,5.70351 11.392991,6.89478 2.59443,0.49333 10.554019,0.32351 12.696774,-0.27088 z m 18.859472,-9.87552 c -0.074,-6.20173 -0.25442,-11.31522 -0.43968,-12.46206 -0.1728,-1.06968 -0.27343,-1.98562 -0.22363,-2.03542 0.0498,-0.0498 0.61059,1.83742 1.24621,4.19383 0.63562,2.35641 1.9083,7.02282 2.82819,10.3698 0.91989,3.34698 1.94109,7.06768 2.26934,8.26823 l 0.59682,2.18281 h 4.82888 4.82888 l 0.39452,-1.38906 c 0.573,-2.01749 1.90854,-6.90765 4.40539,-16.13063 1.21008,-4.46984 2.22367,-8.10125 2.25242,-8.06979 0.0288,0.0315 -0.11111,1.4264 -0.3108,3.09989 -0.19968,1.67349 -0.44499,7.41826 -0.54512,12.76615 l -0.18206,9.72344 h 6.26064 6.26063 v -19.05 -19.05 h -8.42259 -8.4226 l -0.70325,2.71198 c -0.38679,1.49158 -1.60842,6.28385 -2.71474,10.64948 -1.10632,4.36562 -2.09983,8.03107 -2.20782,8.14543 -0.10798,0.11437 -0.65041,-1.5525 -1.2054,-3.70416 -0.55499,-2.15166 -1.71212,-6.59101 -2.57141,-9.86523 -0.85928,-3.27422 -1.67949,-6.39961 -1.82267,-6.94532 l -0.26033,-0.99218 h -8.714369 -8.71436 l -0.01,19.05 -0.01,19.05 h 5.71712 5.717109 z"
       id="path1" /></g></svg>
