<?xml version="1.0" encoding="UTF-8" standalone="no"?>
<!-- Created with Inkscape (http://www.inkscape.org/) -->

<svg
   width="210mm"
   height="297mm"
   viewBox="0 0 210 297"
   version="1.1"
   id="svg1"
   xml:space="preserve"
   xmlns="http://www.w3.org/2000/svg"
   xmlns:svg="http://www.w3.org/2000/svg"><defs
     id="defs1" /><g
     id="layer1"><g
       id="g1"
       transform="translate(16.60222,-11.991941)"
       style="display:inline"><path
         style="fill:#fefefe"
         d="m 55.190098,99.391322 c -0.240988,-4.109888 3.574277,-4.435812 7.723782,-7.170081 4.149506,-2.734268 10.057375,-3.889335 15.710543,-5.480082 5.653168,-1.590746 10.766418,-2.948575 11.808796,-7.144743 0.236762,-0.953099 0.717488,-5.667136 0.593337,-8.356942 -0.124151,-2.689806 -1.612712,-5.82386 -1.896627,-8.933718 -0.283915,-3.109858 -0.02778,-5.625871 -0.270308,-7.839128 -0.242531,-2.213256 0.630273,-5.357996 0.630273,-5.357996 l 4.669538,6.647264 4.669537,6.647264 4.669541,6.647263 4.09989,11.394341 4.15209,0.480128 2.25326,-22.495728 -0.87981,-6.165781 4.22943,3.444638 4.22943,3.444639 4.22943,3.444638 4.22943,3.444639 3.62523,9.117446 1.15674,12.915108 6.09371,5.319783 3.62523,9.117446 10.24908,26.65163 3.03353,28.1707 -0.005,16.77771 -0.38437,32.72789 -5.14774,16.67945 -4.56066,8.10214 -8.67489,9.50799 c -11.12469,5.86904 -11.84207,7.62527 -19.70049,9.68723 -4.60283,1.20773 -9.81923,1.46317 -14.09854,1.4638 -4.2793,6.3e-4 -7.380554,-1.62897 -9.403726,-2.33627 -1.71576,-0.59983 -2.209702,-0.56327 -9.423903,-4.90446 -1.823422,-1.09725 -3.850252,-3.31936 -5.567036,-5.08183 -1.716784,-1.76248 -1.889282,-2.3058 -3.232054,-4.98244 -1.237398,-2.46659 -3.35049,-7.26623 -4.300304,-10.55401 -0.949815,-3.28779 -1.021178,-5.2536 -1.403132,-8.88832 -0.381954,-3.63472 -0.314967,-6.0901 0.151217,-9.59751 0.466184,-3.5074 0.572032,-6.35787 1.312157,-9.73841 0.681001,-3.11049 1.951338,-7.96552 4.499453,-13.69729 2.535077,-5.70243 5.973835,-13.3502 5.626815,-20.58427 -0.311648,-6.49667 0.218475,-13.9147 0.236211,-19.98181 0.01735,-5.93374 0.755766,-10.81948 -0.08948,-13.6938 -0.845252,-2.87433 -2.431219,-0.98492 -4.938881,-1.48331 -2.507662,-0.4984 -4.702779,0.50801 -7.715748,0.99452 -3.01297,0.4865 -3.900602,-1.25583 -6.261776,-1.17545 -2.361173,0.0804 -3.632465,-1.81418 -4.184739,-3.53095 -2.209097,-6.86708 -3.578982,-10.58146 -4.408747,-12.58967 -0.829765,-2.00821 -1.119409,-2.31025 -1.168025,-2.35265 -0.04862,-0.0424 0.143797,0.17483 0.278148,-0.79483 0.13435,-0.96965 0.210639,-3.1262 -0.07023,-7.916178 z"
         id="path22" /><path
         style="display:inline;fill:#14415d;fill-opacity:1"
         d="m 103.98125,252.48969 c -1.71826,-0.69065 -1.12789,-1.72454 4.56024,-7.986 5.89548,-6.48973 9.35048,-9.71381 13.98346,-13.04887 10.62801,-7.65058 15.06714,-11.03738 18.12892,-13.83129 4.40728,-4.0217 9.2002,-9.316 11.56751,-12.77759 2.95866,-4.32629 5.56636,-7.55497 6.10189,-7.55497 0.31445,0 0.4213,1.29951 0.40612,4.93889 -0.0191,4.58855 -0.11602,5.28922 -1.3656,9.87778 -3.06013,11.23707 -7.14535,18.73229 -13.95962,25.6119 -3.6769,3.71216 -4.48782,4.35112 -9.31141,7.33694 -5.74055,3.55343 -13.49786,6.30372 -20.91867,7.41654 -3.02677,0.45389 -8.08229,0.46306 -9.19284,0.0167 z m -10.363773,-2.97906 c -1.846847,-0.67957 -9.050578,-5.05645 -10.546417,-6.40785 -0.700001,-0.63241 -1.558511,-1.6805 -1.907802,-2.32909 l -0.635073,-1.17926 1.488746,-2.98368 c 2.619922,-5.25072 9.571939,-14.30752 14.954628,-19.48227 3.342581,-3.21345 9.632591,-8.11072 16.217231,-12.62641 9.10196,-6.24204 18.31963,-14.01476 23.61258,-19.9111 6.08095,-6.77417 10.89194,-13.50203 13.63586,-19.0689 1.34404,-2.72678 2.55801,-5.42553 2.69771,-5.99722 0.1397,-0.57169 0.7334,-2.23006 1.31934,-3.68527 0.91706,-2.27756 1.08748,-3.22133 1.22433,-6.78052 0.1397,-3.63294 0.0602,-4.4362 -0.65554,-6.61927 -0.448,-1.36651 -0.93325,-2.3634 -1.07835,-2.2153 -0.28302,0.28887 -1.49396,3.42904 -3.12706,8.10897 -0.55675,1.59545 -1.2513,3.3417 -1.54346,3.88056 -0.29215,0.53885 -0.93962,1.85286 -1.43883,2.92001 -3.32724,7.11269 -8.37467,14.63261 -13.85203,20.6375 -5.51162,6.04244 -12.6461,12.9483 -16.15556,15.63787 -1.55222,1.18958 -3.69535,2.84626 -4.7625,3.68151 -1.06715,0.83524 -2.57528,1.90687 -3.35139,2.38139 -1.86127,1.13799 -5.97666,4.09332 -7.94935,5.70856 -0.86661,0.70958 -2.607524,2.10081 -3.868704,3.09162 -3.238637,2.54436 -9.49472,8.81732 -12.363003,12.39636 -2.125952,2.65276 -3.705502,4.95168 -7.671073,11.16468 -1.387409,2.17371 -2.040443,1.91425 -3.320957,-1.31944 -2.555831,-6.45426 -3.527961,-15.56647 -2.203275,-20.65228 1.248828,-4.79458 6.063673,-11.21256 12.152753,-16.1991 1.99108,-1.63056 8.970124,-6.66668 15.643469,-11.28843 7.91724,-5.48322 12.53693,-9.24495 17.51776,-14.26437 4.15996,-4.1922 5.75527,-6.11045 8.54125,-10.27032 4.12466,-6.15869 6.74439,-11.08659 8.90847,-16.75743 3.15492,-8.2673 4.04602,-13.41891 4.05784,-23.45923 0.008,-6.42348 -0.33224,-8.92339 -1.79814,-13.22916 -1.60035,-4.700692 -2.47595,-6.063217 -5.78095,-8.995837 -3.35775,-2.979434 -3.28177,-2.748168 -2.43393,-7.408333 1.28574,-7.067105 0.33159,-14.522942 -2.5142,-19.646301 -1.52234,-2.740718 -6.27339,-7.836922 -8.56284,-9.184921 -2.21528,-1.30433 -2.48459,-0.784122 -1.32798,2.565163 1.44799,4.193053 1.96869,7.25693 1.96869,11.584055 0,4.470913 -0.3565,6.859717 -1.64874,11.047612 -1.31946,4.276127 -1.24483,4.215992 -4.57154,3.683556 -2.11583,-0.338636 -4.41065,-0.361931 -9.65472,-0.09801 -6.227398,0.313415 -7.413942,0.481302 -12.523606,1.771997 -3.104444,0.784179 -6.914444,1.890152 -8.466666,2.457718 -1.552222,0.567565 -5.904112,2.092032 -9.670866,3.387703 -7.721327,2.655947 -9.344224,3.398441 -11.977245,5.479724 -2.231466,1.763874 -3.271697,3.340984 -3.142299,4.764094 0.132014,1.45187 0.865569,1.49647 3.899913,0.23708 3.510568,-1.45704 4.976274,-1.69134 6.075389,-0.97117 0.748507,0.49044 0.880387,0.84683 0.880387,2.37915 0,1.60019 -0.137423,1.9319 -1.225517,2.95811 -0.674035,0.63569 -2.181817,1.52662 -3.350628,1.97984 -3.337282,1.29406 -3.62994,1.62202 -3.932914,4.40734 -0.443904,4.08092 0.273833,5.52853 3.570171,7.20074 1.127426,0.57193 2.200931,0.80572 3.704166,0.80667 3.950956,0.003 6.541731,-1.8521 8.164925,-5.84489 l 0.756592,-1.8611 2.010962,-0.1068 c 2.340033,-0.12427 3.707798,0.54518 3.707798,1.8148 0,0.44538 -0.250137,1.65208 -0.55586,2.68156 -0.367211,1.23654 -0.437209,1.99043 -0.206252,2.22139 0.192284,0.19228 2.148983,0.58168 4.34822,0.86532 2.199237,0.28364 6.526863,1.13846 9.616947,1.89959 4.833477,1.19055 6.166833,1.38387 9.544693,1.38387 3.04667,0 4.41379,-0.16461 6.10193,-0.7347 3.1399,-1.06037 6.09079,-3.08978 7.42783,-5.10834 1.1081,-1.67293 2.52804,-5.55141 2.52804,-6.9052 0,-0.3737 0.25294,-0.77652 0.56209,-0.89515 0.78197,-0.30007 5.41091,0.61678 5.97824,1.18411 0.59554,0.59554 0.35966,1.41798 -1.81469,6.32703 -1.51999,3.43169 -1.99445,4.1329 -4.47006,6.6063 -2.21592,2.21395 -3.34694,3.03336 -5.65771,4.09896 -3.61967,1.66918 -7.15474,2.48254 -10.78972,2.48254 -3.27859,0 -5.197359,-0.34814 -10.180439,-1.84712 -1.98997,-0.59861 -3.685697,-1.02081 -3.768282,-0.93823 -0.08258,0.0826 0.0247,3.32276 0.238415,7.20039 0.279313,5.0679 0.283212,10.02598 0.01387,17.63357 -0.361172,10.20122 -0.419492,10.77484 -1.615298,15.88738 -2.088133,8.92759 -4.021274,12.22741 -8.619382,14.71304 -2.142384,1.15812 -3.38723,1.3528 -3.546138,0.55458 -0.06515,-0.32725 0.742565,-2.62912 1.794917,-5.11528 2.134015,-5.04155 2.603105,-6.41166 4.023644,-11.75222 l 0.985274,-3.70417 -0.119741,-18.52083 c -0.06586,-10.18646 -0.245723,-18.65307 -0.3997,-18.8147 -0.153976,-0.16162 -1.801923,-0.42426 -3.662103,-0.58364 -2.940759,-0.25196 -3.671265,-0.19675 -5.597523,0.42299 -1.547771,0.49798 -3.304341,1.1177 -5.743154,0.76003 -1.92395,-0.28216 -3.364942,-0.83495 -4.555214,-1.17768 -1.190271,-0.34274 -2.129822,-0.4754 -4.38007,-2.00603 -4.687489,-3.18844 -5.278156,-4.23797 -5.69679,-10.12228 -0.248107,-3.48738 -0.424253,-4.23142 -1.555112,-6.56873 -1.001145,-2.06922 -1.275312,-3.06199 -1.275312,-4.61796 0,-6.39995 7.743745,-12.871419 20.872997,-17.443624 1.875774,-0.65323 4.059833,-1.518958 4.853465,-1.923838 1.936352,-0.987853 6.035757,-2.460756 8.839564,-3.176027 l 2.286863,-0.583394 0.295717,-1.566585 c 0.162644,-0.861621 0.210984,-4.424084 0.107421,-7.916584 -0.21386,-7.212104 -0.671431,-9.49964 -3.034307,-15.169443 -0.945979,-2.269909 -1.539246,-4.302293 -1.663856,-5.699959 l -0.193663,-2.172182 1.172185,-0.606161 c 1.722988,-0.890991 5.052266,-0.207408 9.4399,1.938246 4.098897,2.004454 7.090882,4.401816 9.487382,7.601875 4.19769,5.605199 5.94306,10.538809 6.33706,17.91285 0.12219,2.286902 0.35781,4.241837 0.52359,4.344299 0.16579,0.102462 0.61257,0.08754 0.99285,-0.03315 0.9105,-0.288982 1.36846,-2.023085 1.63103,-6.176093 0.2759,-4.363762 -0.47581,-8.959976 -2.30323,-14.082817 -1.4335,-4.018557 -2.01864,-6.683211 -1.66817,-7.596542 0.17634,-0.459537 0.63799,-1.78806 2.12884,-1.323582 0.93029,0.289802 4.6688,1.185537 8.20432,2.69271 7.85812,3.349874 9.54955,4.234747 11.4678,6.643119 1.97451,2.479013 4.12627,7.140603 4.73105,10.249393 0.51088,2.626119 1.56896,12.400062 1.56896,14.49316 0,1.48074 0.66548,2.801544 1.90136,3.773682 0.52178,0.410432 1.76186,1.960106 2.75575,3.44372 0.99388,1.483614 2.71849,3.96748 3.83248,5.519702 3.10276,4.323395 6.98378,12.436385 7.95266,16.624465 0.30862,1.33404 1.01373,4.01304 1.56692,5.95331 0.55318,1.94028 1.24433,5.47555 1.53589,7.85617 0.29156,2.38061 0.62173,4.47663 0.73372,4.65782 0.11198,0.1812 0.43694,3.15467 0.72214,6.60773 0.28519,3.45305 0.74723,8.34204 1.02676,10.86442 0.31974,2.88528 0.52131,8.57657 0.54351,15.34583 0.0423,12.91634 0.0939,11.91044 -0.77689,15.16942 -1.20613,4.51424 -1.7054,5.9273 -2.51893,7.12915 -0.43227,0.63862 -1.31257,2.11362 -1.95621,3.27779 -0.64364,1.16417 -1.50882,2.72951 -1.92262,3.47854 -1.31647,2.38298 -5.36818,6.92841 -11.61916,13.03499 -6.04262,5.90303 -10.41308,9.55581 -16.1246,13.47677 -9.85964,6.76863 -16.14188,12.59461 -22.18539,20.5741 -2.253102,2.97486 -4.436442,5.97105 -4.851865,6.6582 -0.69429,1.14842 -1.452866,1.88569 -1.890519,1.83741 -0.09701,-0.0107 -0.752276,-0.23136 -1.456137,-0.49035 z m 3.09805,-170.400206 c 0.696561,-0.291042 2.120212,-0.529167 3.163669,-0.529167 h 1.897194 l 0.0599,-1.675694 c 0.23188,-6.490331 -1.907037,-12.205185 -6.106626,-16.315971 -2.347815,-2.298169 -4.536575,-3.858743 -4.536575,-3.234552 0,0.183213 0.47884,1.356372 1.064088,2.607019 1.451885,3.102607 2.021385,6.460308 2.260483,13.327532 0.111465,3.201458 0.202787,5.939895 0.202936,6.085416 4.08e-4,0.399644 0.593499,0.320985 1.994961,-0.264583 z m 2.238642,86.018996 c -0.291041,-0.1131 -0.965729,-0.61241 -1.499305,-1.10957 -1.274776,-1.18778 -1.296218,-2.79972 -0.05684,-4.27264 1.209401,-1.43729 3.433966,-1.53822 4.856016,-0.2203 1.88208,1.74425 0.81543,5.26176 -1.71238,5.6469 -0.582079,0.0887 -1.296454,0.0687 -1.587496,-0.0444 z M 101.6,107.20179 c -1.801538,-0.82286 -3.575927,-2.64499 -4.088703,-4.19872 -0.664989,-2.01493 -0.258559,-5.100976 0.865964,-6.575302 2.777059,-3.640908 8.610799,-3.921603 11.647419,-0.560423 1.95872,2.168074 2.11592,5.170575 0.443,8.461445 -1.51762,2.98538 -5.67365,4.33187 -8.86768,2.873 z m 4.26872,-6.31274 c 1.57504,-1.051689 1.21359,-3.257794 -0.53377,-3.257794 -1.57213,0 -2.44186,1.539344 -1.57166,2.781724 0.52853,0.75459 1.39491,0.95049 2.10543,0.47607 z"
         id="path15" /></g></g></svg>
