<?xml version="1.0" encoding="UTF-8" standalone="no"?>
<!-- Created with Inkscape (http://www.inkscape.org/) -->

<svg
   width="210mm"
   height="297mm"
   viewBox="0 0 210 297"
   version="1.1"
   id="svg5"
   xml:space="preserve"
   inkscape:export-filename="logo blanco.png"
   inkscape:export-xdpi="96"
   inkscape:export-ydpi="96"
   inkscape:version="1.2.1 (9c6d41e410, 2022-07-14)"
   sodipodi:docname="logo crudo2.svg"
   xmlns:inkscape="http://www.inkscape.org/namespaces/inkscape"
   xmlns:sodipodi="http://sodipodi.sourceforge.net/DTD/sodipodi-0.dtd"
   xmlns="http://www.w3.org/2000/svg"
   xmlns:svg="http://www.w3.org/2000/svg"><sodipodi:namedview
     id="namedview7"
     pagecolor="#505050"
     bordercolor="#ffffff"
     borderopacity="1"
     inkscape:showpageshadow="0"
     inkscape:pageopacity="0"
     inkscape:pagecheckerboard="1"
     inkscape:deskcolor="#d1d1d1"
     inkscape:document-units="mm"
     showgrid="false"
     inkscape:zoom="1.4770342"
     inkscape:cx="237.63837"
     inkscape:cy="505.06616"
     inkscape:window-width="1920"
     inkscape:window-height="1009"
     inkscape:window-x="-8"
     inkscape:window-y="-8"
     inkscape:window-maximized="1"
     inkscape:current-layer="layer1" /><defs
     id="defs2" /><g
     inkscape:label="Capa 1"
     inkscape:groupmode="layer"
     id="layer1"><path
       style="fill:#ffffff;stroke-width:0.264583"
       d="m 90.915874,197.34767 -2.11667,-0.21571 -2.4524,-0.4362 -2.4524,-0.4362 -3.63302,-1.14858 -3.63302,-1.14858 -2.30076,-1.07267 -2.30075,-1.07266 -2.32058,-1.37065 -2.32057,-1.37066 -1.59638,-1.07157 -1.59638,-1.07157 -2.11666,-1.7868 -2.11667,-1.7868 -2.00224,-2.07354 -2.00224,-2.07354 -1.724352,-2.11666 -1.72435,-2.11667 -1.05569,-1.5875 -1.0557,-1.5875 -1.3903,-2.42683 -1.39029,-2.42684 -1.06611,-2.46796 -1.0661,-2.46795 -0.76181,-2.1527 -0.7618,-2.1527 -0.78248,-3.03475 -0.78248,-3.03474 -0.46354,-3.14693 -0.46354,-3.14693 0.002,-5.29167 0.002,-5.29167 0.46581,-3.0427 0.4658,-3.04271 0.51763,-2.24896 0.51763,-2.24896 0.82042,-2.51354 0.82041,-2.51354 1.05688,-2.50911 1.05688,-2.50911 1.20637,-2.25339 1.20637,-2.25339 1.38569,-2.11667 1.38568,-2.11667 0.56125,-0.59531 0.56124,-0.59531 h 8.456362 8.45636 v -0.52917 -0.52917 h -8.08781 -8.087812 l 0.597632,-0.85989 0.59763,-0.8599 2.26466,-2.342551 2.26466,-2.342549 2.56584,-2.070962 2.56584,-2.070961 2.24846,-1.480725 2.24846,-1.480725 3.1232,-1.552164 3.1232,-1.552164 3.15518,-1.096583 3.15519,-1.096583 3.85627,-0.771715 3.85628,-0.771715 3.57188,-0.170013 3.57187,-0.170014 3.192666,0.28646 3.19267,0.286459 2.62816,0.534274 2.62817,0.534273 1.85208,0.541421 1.85208,0.541422 2.4844,0.947538 2.4844,0.947538 2.15185,1.116328 2.15185,1.116328 1.79475,1.090349 1.79475,1.09035 2.56389,1.925634 2.56388,1.925635 3.06471,3.042708 3.0647,3.042707 1.58673,2.11667 1.58673,2.11667 1.3738,2.046 1.3738,2.04601 1.56112,3.11337 1.56112,3.11337 0.78375,1.98437 0.78375,1.98438 0.80279,2.51354 0.8028,2.51354 0.672,3.44704 0.672,3.44704 0.31052,3.69671 0.31052,3.69671 -0.17285,3.30729 -0.17284,3.30729 -0.40535,2.77813 -0.40534,2.77812 -0.66845,2.74596 -0.66845,2.74596 -1.04814,3.07488 -1.04815,3.07487 -1.55345,3.175 -1.55346,3.175 -1.75688,2.75847 -1.75688,2.75846 -1.75269,2.13633 -1.75269,2.13632 -2.1352,2.2059 -2.1352,2.2059 -2.38125,1.93181 -2.38125,1.93181 -2.77813,1.77094 -2.77812,1.77095 -2.91042,1.40296 -2.91041,1.40296 -2.38126,0.80563 -2.38125,0.80562 -2.11666,0.53633 -2.11667,0.53632 -2.51354,0.40952 -2.51354,0.40951 -4.233336,0.11265 -4.23333,0.11264 -2.11667,-0.21572 z m -7.27605,-24.61802 v -15.61041 h -6.61458 -6.61459 v 15.61041 15.61042 h 6.61459 6.61458 z m 5.82083,7.80521 v -2.51354 h -0.66145 -0.66146 v 2.51354 2.51354 h 0.66146 0.66145 z m 2.11777,0.99219 0.001,-1.52136 0.87337,1.45521 0.87338,1.45521 0.71303,0.0837 0.71303,0.0837 v -2.53111 -2.53112 h -0.66146 -0.66146 l -0.0155,1.38906 -0.0156,1.38906 -0.31517,-0.49492 -0.31517,-0.49493 -0.53771,-0.82799 -0.53772,-0.82799 -0.65291,-0.0769 -0.65291,-0.0769 v 2.52449 2.52449 l 0.59531,-2.3e-4 0.59534,-2.4e-4 10e-4,-1.52135 z m 6.08432,-0.44462 v -1.96597 l 0.57136,-0.0846 0.57137,-0.0845 0.0667,-0.46302 0.0667,-0.46302 h -1.82867 -1.82867 v 0.52917 0.52916 h 0.52917 0.52916 v 1.98438 1.98437 h 0.66146 0.66146 z m 4.762496,1.43681 v -0.52917 h -0.79375 -0.79375 v -0.52917 -0.52916 h 0.66146 0.66146 v -0.52917 -0.52917 h -0.66146 -0.66146 v -0.39687 -0.39688 h 0.79375 0.79375 v -0.52916 -0.52917 h -1.45521 -1.455206 v 2.51354 2.51354 h 1.455206 1.45521 z m 4.64224,-0.12027 0.64943,-0.64943 v -0.80578 -0.80577 h -1.19063 -1.19062 v 0.42164 0.42165 l 0.52916,0.13838 0.52917,0.13838 v 0.21589 0.2159 l -0.57889,0.18373 -0.57889,0.18373 -0.47944,-0.59209 -0.47945,-0.59209 v -0.33825 -0.33825 l 0.49809,-0.61511 0.49808,-0.61511 0.6264,0.28109 0.62639,0.28109 0.33073,-0.11422 0.33073,-0.11421 v -0.36552 -0.36551 l -0.51177,-0.2739 -0.51177,-0.27389 h -0.92424 -0.92423 l -0.55412,0.70445 -0.55412,0.70445 -0.15651,0.6236 -0.15652,0.6236 0.33102,0.79916 0.33102,0.79915 0.55158,0.38634 0.55157,0.38633 h 0.8792 0.87919 z m 2.58308,-0.27688 -0.0507,-0.79348 0.73145,0.8599 0.73145,0.85989 h 1.35196 1.35196 l 0.16796,-0.52916 0.16795,-0.52917 h 0.90821 0.90821 v 0.52917 0.52916 h 0.76641 0.7664 l -0.89869,-2.41725 -0.8987,-2.41726 v -0.0963 -0.0963 h -0.64223 -0.64223 l -0.81298,2.10813 -0.81298,2.10813 v 0.27312 0.27312 h -0.21482 -0.21483 l -0.57001,-0.77097 -0.57,-0.77098 0.42998,-0.86194 0.43,-0.86193 -0.38145,-0.68219 -0.38144,-0.6822 -1.38038,-0.08 -1.38038,-0.08 v 2.54577 2.54577 l 0.59531,-0.0848 0.59531,-0.0848 z m 5.0495,-1.60887 0.1606,-0.41851 0.004,-0.1768 0.004,-0.1768 0.25648,0.39688 0.25648,0.39687 0.004,0.19844 0.004,0.19844 h -0.42518 -0.42519 l 0.1606,-0.41852 z m -4.9657,-0.5863 -0.13045,-0.21107 0.23611,-0.38204 0.2361,-0.38202 0.30547,0.30546 0.30546,0.30546 -0.17777,0.28764 -0.17777,0.28764 h -0.23335 -0.23336 z m 11.1628,2.65846 -0.0877,-0.46302 -0.85773,-0.0829 -0.85773,-0.0829 v -1.96761 -1.96761 h -0.51101 -0.51101 l -0.0843,2.51413 -0.0843,2.51414 1.54075,-5.3e-4 1.54076,-5.3e-4 -0.0877,-0.46302 z m -28.240156,-8.86354 0.0213,-1.38906 0.40942,1.38906 0.40942,1.38906 h 0.47323 0.47323 l 0.37985,-1.12448 0.37985,-1.12448 0.19462,1.12448 0.19463,1.12448 h 0.50591 0.50591 l -0.002,-1.12448 -0.002,-1.12448 -0.16849,-1.40292 -0.16849,-1.40292 -0.66871,0.08 -0.6687,0.08 -0.37318,1.12448 -0.37318,1.12448 h -0.20815 -0.20815 l -0.33336,-1.19063 -0.33335,-1.19062 h -0.75936 -0.75937 v 0.88723 0.88723 l -0.16998,1.62631 -0.16998,1.62631 h 0.69914 0.69915 l 0.0214,-1.38906 z m 7.651566,0.8599 v -0.52917 h -0.793746 -0.79375 v -0.52917 -0.52916 h 0.79375 0.793746 v -0.52917 -0.52917 h -0.793746 -0.79375 v -0.39687 -0.39688 h 0.79375 0.793746 v -0.52916 -0.52917 h -1.455196 -1.45521 v 2.51354 2.51354 h 1.45521 1.455196 z m 4.07753,-0.28489 0.68497,-0.81405 v -0.97459 -0.97459 l -0.67216,-0.7249 -0.67217,-0.7249 h -1.31221 -1.31221 v 2.51354 2.51354 h 1.2994 1.2994 z m -1.96086,-1.69949 v -1.45521 h 0.24569 0.24568 l 0.41577,0.41578 0.41578,0.41577 v 0.62366 0.62366 l -0.41578,0.41578 -0.41577,0.41577 h -0.24568 -0.24569 z m 4.7625,0 v -2.51354 h -0.66146 -0.66146 v 2.51354 2.51354 h 0.66146 0.66146 z m 4.57933,2.36416 0.38928,-0.14938 -0.13391,-0.51207 -0.13391,-0.51208 h -0.97456 -0.97456 l -0.3175,-0.3175 -0.3175,-0.3175 v -0.55563 -0.55562 l 0.3175,-0.3175 0.3175,-0.3175 h 0.97711 0.97711 l 0.13992,-0.36464 0.13992,-0.36463 -0.29682,-0.29682 -0.29682,-0.29683 h -0.98512 -0.98512 l -0.81405,0.68498 -0.81405,0.68498 v 1.14358 1.14359 l 0.81405,0.68498 0.81405,0.68497 h 0.8841 0.88411 z m 4.70402,-0.18976 0.4198,-0.32232 0.3078,-0.57791 0.3078,-0.57792 v -0.90736 -0.90735 l -0.69754,-0.69754 -0.69753,-0.69754 h -0.96339 -0.96338 l -0.58354,0.40873 -0.58355,0.40873 -0.22565,0.84804 -0.22565,0.84804 0.21751,0.79375 0.21751,0.79375 0.56213,0.46302 0.56212,0.46302 0.96288,-0.008 0.96287,-0.008 0.41981,-0.32232 z m -2.01584,-1.08958 -0.42999,-0.31443 0.087,-0.91436 0.087,-0.91436 0.83728,-0.0812 0.83728,-0.0812 0.1788,0.56334 0.1788,0.56334 -0.15329,0.61075 -0.15329,0.61075 -0.51977,0.13592 -0.51976,0.13592 z m -15.187606,-4.40142 0.51177,-0.27389 v -0.38757 -0.38756 l -0.33073,0.008 -0.33073,0.008 -0.46302,0.35149 -0.46302,0.35148 v 0.30156 0.30156 h 0.28198 0.28197 l 0.51178,-0.27389 z m -7.27763,-2.75581 0.42488,-0.64844 -0.0899,-0.46673 -0.0899,-0.46672 -0.87028,-0.58649 -0.87029,-0.58648 0.0172,-0.21658 0.0172,-0.21657 h 0.71687 0.71686 l 0.0895,-0.45356 0.0895,-0.45357 -0.67904,-0.17043 -0.67904,-0.17043 -0.65382,0.1641 -0.65382,0.1641 -0.28688,0.53604 -0.28688,0.53604 0.15868,0.49995 0.15868,0.49996 0.95321,0.56241 0.9532,0.5624 -0.2963,0.2963 -0.2963,0.2963 -0.64854,-0.2955 -0.64855,-0.29549 -0.34083,0.41068 -0.34083,0.41068 0.5036,0.36824 0.5036,0.36824 h 1.00167 1.00166 z m 4.08523,0.11929 v -0.52917 h -0.79375 -0.79375 v -0.52917 -0.52916 h 0.66146 0.66146 v -0.52917 -0.52917 h -0.66146 -0.66146 v -0.3793 -0.3793 l 0.72534,-0.0837 0.72535,-0.0837 0.0878,-0.46302 0.0878,-0.46302 h -1.47461 -1.47461 v 2.51354 2.51354 h 1.45521 1.45521 z m 2.12503,-0.19844 0.008,-0.72761 0.64041,0.72761 0.6404,0.7276 h 0.674146 0.67415 v -0.16024 -0.16024 l -0.66189,-0.78661 -0.661876,-0.78661 0.3973,-0.56723 0.397296,-0.56723 v -0.51561 -0.5156 l -0.437876,-0.48386 -0.43788,-0.48385 h -1.28191 -1.28191 v 2.51354 2.51354 h 0.66146 0.66146 z m -0.008,-2.71198 v -0.52917 h 0.39687 0.39688 v 0.52917 0.52917 h -0.39688 -0.39687 z m 6.719106,1.05651 0.9538,-2.38308 v -0.13046 -0.13047 h -0.63957 -0.63957 l -0.4625,1.25677 -0.46249,1.25677 -0.16653,0.19704 -0.16654,0.19704 -0.49416,-1.45381 -0.49417,-1.45381 h -0.73898 -0.73899 l 0.79167,1.8604 0.79168,1.86041 0.24832,0.65314 0.24832,0.65313 h 0.50795 0.50795 z m 2.80589,-0.13047 v -2.51354 h -0.66146 -0.66146 v 2.51354 2.51354 h 0.66146 0.66146 z m 4.70531,2.2899 0.33969,-0.21554 -0.16956,-0.44187 -0.16956,-0.44186 h -0.97711 -0.9771 l -0.3175,-0.3175 -0.3175,-0.3175 v -0.55563 -0.55562 l 0.3175,-0.3175 0.3175,-0.3175 h 0.97455 0.97456 l 0.13391,-0.51208 0.13391,-0.51208 -0.38927,-0.14938 -0.38928,-0.14938 h -0.8841 -0.8841 l -0.81405,0.68498 -0.81405,0.68498 v 1.14358 1.14359 l 0.81405,0.68498 0.81405,0.68497 0.97189,-0.004 0.97188,-0.004 0.33969,-0.21554 z m 2.17386,-2.2899 v -2.51354 h -0.66146 -0.66146 v 2.51354 2.51354 h 0.66146 0.66146 z m 4.62614,2.095 0.63879,-0.41855 0.29098,-0.88168 0.29098,-0.88168 -0.38751,-0.92744 -0.3875,-0.92743 -0.53417,-0.28588 -0.53418,-0.28588 h -0.83149 -0.8315 l -0.7734,0.7734 -0.77339,0.77339 v 1.04261 1.04261 l 0.69753,0.69754 0.69754,0.69753 h 0.89927 0.89927 z m -2.39557,-1.54491 -0.16077,-0.64053 0.0932,-0.48395 0.0932,-0.48394 h 0.89211 0.89211 l 0.19433,0.52916 0.19433,0.52917 -0.22164,0.59531 -0.22164,0.59532 h -0.79724 -0.79723 z m -31.219016,-11.37821 1.57094,-0.43578 1.14104,-0.50473 1.14104,-0.50474 v -10.31236 -10.31237 l -1.25677,-0.4022 -1.25677,-0.4022 -1.05833,-0.28732 -1.05834,-0.28732 -4.04264,-0.91522 -4.04265,-0.91522 -1.32573,-0.57032 -1.32572,-0.57031 -0.25402,-0.47464 -0.25403,-0.47465 v -0.63273 -0.63274 l 0.61909,-0.5816 0.61909,-0.58161 0.90052,-0.25826 0.90052,-0.25827 h 1.79618 1.79618 l 0.87821,0.36694 0.87822,0.36694 0.57066,0.80142 0.57066,0.80142 0.1632,0.81601 0.1632,0.81602 h 3.00964 3.00963 v -4.99095 -4.99095 l -1.52135,-0.6701 -1.52136,-0.6701 -1.85208,-0.48811 -1.85208,-0.48811 -4.89479,0.0149 -4.8948,0.0149 -2.38125,0.72662 -2.38125,0.72663 -1.68176,0.93842 -1.68178,0.93842 -1.02244,1.05356 -1.02244,1.05356 -0.66129,1.36516 -0.66128,1.36516 -0.3113,1.91823 -0.3113,1.91823 0.30924,1.87247 0.30923,1.87247 0.64676,1.27633 0.64677,1.27633 1.24032,1.20553 1.24032,1.20553 1.74506,0.91145 1.74506,0.91145 2.91042,0.79519 2.91041,0.79519 3.175,0.71838 3.175,0.71838 1.00278,0.50747 1.00276,0.50746 0.28758,0.63118 0.28759,0.63117 -0.17008,0.67762 -0.17007,0.67762 -0.64628,0.42346 -0.64628,0.42346 -1.99079,0.26602 -1.99079,0.26602 -1.88448,-0.31786 -1.88448,-0.31786 -0.79056,-0.70636 -0.79056,-0.70637 -0.32592,-1.44785 -0.32592,-1.44784 -5.60884,-0.0714 -5.60884,-0.0714 -0.17284,0.45044 -0.17285,0.45043 0.30588,2.09866 0.30588,2.09866 0.64329,1.40513 0.64329,1.40513 1.13977,1.2365 1.13977,1.23651 1.99279,0.99977 1.99279,0.99976 2.51354,0.5564 2.51354,0.5564 0.66146,0.11727 0.66146,0.11727 4.63021,-0.0827 4.6302,-0.0827 1.57094,-0.43577 z m 18.859476,-9.87553 -0.1255,-10.51718 -0.31418,-1.94488 -0.31417,-1.94487 0.0905,-0.0905 0.0905,-0.0905 1.15566,4.28437 1.15567,4.28438 1.67252,6.08542 1.67252,6.08542 0.59683,2.18281 0.59681,2.18281 h 4.82888 4.82889 l 0.39451,-1.38906 0.39452,-1.38906 0.90536,-3.30729 0.90537,-3.3073 2.20015,-8.12698 2.20014,-8.12698 0.0735,0.0735 0.0735,0.0735 -0.26073,1.57121 -0.26074,1.57121 -0.25918,5.68854 -0.25919,5.68854 -0.003,5.49011 -0.003,5.4901 h 6.2177 6.21771 v -19.05 -19.05 h -8.42259 -8.4226 l -0.70145,2.71198 -0.70144,2.71198 -2.01862,7.9375 -2.01862,7.9375 -0.18902,0.20595 -0.18901,0.20595 -0.97532,-3.77783 -0.97532,-3.77782 -1.47973,-5.68854 -1.47973,-5.68854 -0.38725,-1.38907 -0.38726,-1.38906 h -8.71248 -8.712476 v 19.05 19.05 h 5.7139 5.713886 z"
       id="path302" /></g></svg>
